<?xml version="1.0" encoding="UTF-8" standalone="no"?>
<!-- Created with Inkscape (http://www.inkscape.org/) -->

<svg
   width="64"
   height="64"
   viewBox="0 0 64 64"
   version="1.1"
   id="svg1"
   inkscape:version="1.3.2 (091e20ef0f, 2023-11-25)"
   sodipodi:docname="INTERVALLES.svg"
   xmlns:inkscape="http://www.inkscape.org/namespaces/inkscape"
   xmlns:sodipodi="http://sodipodi.sourceforge.net/DTD/sodipodi-0.dtd"
   xmlns="http://www.w3.org/2000/svg"
   xmlns:svg="http://www.w3.org/2000/svg">
  <sodipodi:namedview
     id="namedview1"
     pagecolor="#ffffff"
     bordercolor="#000000"
     borderopacity="0.25"
     inkscape:showpageshadow="2"
     inkscape:pageopacity="0.0"
     inkscape:pagecheckerboard="0"
     inkscape:deskcolor="#d1d1d1"
     inkscape:document-units="mm"
     inkscape:zoom="2.1604392"
     inkscape:cx="76.836227"
     inkscape:cy="68.273153"
     inkscape:window-width="1865"
     inkscape:window-height="1043"
     inkscape:window-x="0"
     inkscape:window-y="0"
     inkscape:window-maximized="1"
     inkscape:current-layer="layer1" />
  <defs
     id="defs1" />
  <g
     inkscape:label="Calque 1"
     inkscape:groupmode="layer"
     id="layer1">
    <rect
       style="fill:none;fill-opacity:1;stroke:#000000;stroke-width:2.42451;stroke-dasharray:none;stroke-opacity:1"
       id="rect38-02"
       width="41.56271"
       height="41.56271"
       x="-62.461899"
       y="-58.465881"
       ry="0" />
    <path
       id="rect39-7-6-5"
       style="fill:#1a1a1a;stroke:#000000;stroke-width:0.69271"
       d="m 75.82072,-46.34337 h 6.92738 v 17.3178 h -6.92738 z m 3.14051,-12.46882 v 0.34652 8.78742 h 0.69267 v -8.44127 h 40.86941 v 8.44127 h 0.69309 v -9.13394 z m 0,33.12178 v 9.13356 h 42.25517 v -9.13356 h -0.69309 v 8.4409 H 79.6539 v -8.4409 z m 38.44455,-20.65296 h 6.92738 v 17.3178 h -6.92738 z" />
    <path
       id="rect39-7-6-9-4"
       style="fill:#1a1a1a;stroke:#000000;stroke-width:0.69271;stroke-opacity:1"
       d="m 4.94242,-32.77766 h 6.92667 v 17.31778 H 4.94242 Z m 41.58491,0 h 6.92668 v 17.31778 H 46.52733 Z M 8.08222,-59.90916 v 0.34651 23.08327 h 0.69274 v -22.73711 h 40.87012 v 22.73711 h 0.69302 v -23.42978 z m 7.46895,41.56267 v 0.69267 h 26.63999 v -0.69267 z" />
    <path
       id="rect39-7-6-4-5-3-7-4-0-2"
       style="fill:#1a1a1a;stroke:#000000;stroke-width:0.713329"
       d="M 56.14484,20.49785 51.10089,25.54182 38.49094,12.93189 43.53488,7.88792 Z M 20.82087,7.88793 25.86481,12.9319 13.25492,25.54183 8.21098,20.49786 Z m 11.29156,-6.67791 -0.25214,0.25213 -6.23195,6.23228 0.50435,0.50427 5.97974,-5.98014 6.05795,6.05756 0.5042,-0.50428 z m 24.03446,24.03446 -0.50427,0.50427 6.22932,6.22933 L 32.11243,61.737672 2.35327,31.97807 8.44993,25.88144 7.94559,25.37717 1.34437,31.97808 32.11243,62.746227 62.88084,31.97807 Z" />
    <path
       id="rect39-7-6-4-5-3-7-4-0-5-8"
       style="fill:#1a1a1a;stroke:#000000;stroke-width:0.709046"
       d="m -17.79265,41.62725 -5.01366,-5.01372 -12.5343,12.534292 5.01373,5.013743 z m -35.11196,12.534315 5.01367,-5.013743 -12.53424,-12.534292 -5.01373,5.01372 z m 11.22399,6.640457 -0.25058,-0.250612 -6.19458,-6.194936 0.50123,-0.501246 5.94393,5.944288 6.02157,-6.021247 0.50123,0.50126 z m 23.89031,-23.890362 -0.50129,-0.50125 6.19196,-6.19195 -29.58098,-29.58099 -29.58076,29.581 6.06007,6.06005 -0.50122,0.50124 -6.56173,-6.56129 30.58364,-30.58349 30.58385,30.58349 z" />
    <g
       id="g22"
       transform="matrix(0.70904607,0,0,0.70904607,1021.1926,47.594656)">
      <path
         id="rect38-1-2-9"
         style="color:#000000;fill:#000000;stroke:#020202;stroke-opacity:1;-inkscape-stroke:none"
         d="m -1318.0553,-54.923853 v 0.999937 h 39.235 v -0.999937 z m 48.4067,9.930654 v 39.5448533 h 0.9999 V -44.993199 Z m -60.0013,1.47382 v 38.1769633 h 0.9999 V -43.519379 Z m 11.5631,48.5954411 v 0.9999394 h 37.9879 V 5.0760621 Z" />
      <rect
         style="fill:#000000;fill-opacity:1;stroke:#020202;stroke-width:1.265;stroke-opacity:1"
         id="rect13"
         width="10.211868"
         height="10.211868"
         x="-1274.2488"
         y="-59.776039" />
      <rect
         style="fill:#000000;fill-opacity:1;stroke:#020202;stroke-width:1.265;stroke-opacity:1"
         id="rect13-7"
         width="10.211868"
         height="10.211868"
         x="-1334.1589"
         y="-59.625473" />
      <rect
         style="fill:#000000;fill-opacity:1;stroke:#020202;stroke-width:1.265;stroke-opacity:1"
         id="rect13-3"
         width="10.211868"
         height="10.211868"
         x="-1334.1904"
         y="0.55133474" />
      <rect
         style="fill:#000000;fill-opacity:1;stroke:#020202;stroke-width:1.265;stroke-opacity:1"
         id="rect13-32"
         width="10.211868"
         height="10.211868"
         x="-1274.2043"
         y="0.44560707" />
    </g>
    <path
       style="color:#000000;fill:#020202;stroke:#010101;stroke-width:2.46451;stroke-dasharray:none;stroke-opacity:1"
       d="m -41.67984,77.185205 c -14.19702,0 -25.72469,11.201014 -25.72469,25.020545 0,13.81952 11.52767,25.01917 25.72469,25.01917 14.19695,0 25.72334,-11.19965 25.72334,-25.01917 0,-13.819531 -11.52639,-25.020545 -25.72334,-25.020545 z m 0,0.749526 c 13.80293,0 24.97381,10.86835 24.97381,24.271019 0,13.40266 -11.17088,24.26964 -24.97381,24.26964 -13.80293,0 -24.97516,-10.86698 -24.97516,-24.26964 0,-13.402669 11.17223,-24.271019 24.97516,-24.271019 z"
       id="path14-5" />
    <path
       id="path14-5-1-2-4"
       style="color:#000000;fill:#1a1a1a;stroke:#000000;stroke-width:0.709046;stroke-opacity:1;-inkscape-stroke:none"
       d="m 29.00028,75.520245 c -13.50158,0 -24.60021,10.062094 -25.79233,22.902805 H 3.965 C 5.15365,86.002044 15.89768,76.275053 29.00028,76.275053 c 13.10261,0 23.84529,9.726991 25.03387,22.147997 h 0.75697 C 53.59915,85.582339 42.50187,75.520245 29.00028,75.520245 Z m 0.21584,53.772645 c -13.68332,0 -25.25679,-9.27586 -28.28293,-21.85163 l -0.7852,-3.26272 6.96581,-1.22976 c 2.26675,9.3491 11.61723,19.27997 22.10232,19.27997 10.34143,0 18.90756,-6.86017 21.31428,-16.01448 l 0.73811,-2.80987 6.97276,1.22975 -0.86277,3.30842 c -3.20985,12.32396 -14.66144,21.35032 -28.16238,21.35032 z" />
    <path
       id="path14-5-1-2-4-0"
       style="color:#000000;fill:#1a1a1a;stroke:#000000;stroke-width:0.713556;stroke-opacity:1;-inkscape-stroke:none"
       d="m 99.87773,129.06096 c -13.58745,0 -24.75669,-10.12612 -25.9564,-23.04854 h 0.76187 c 1.19616,12.50004 12.00855,22.28893 25.19453,22.28893 13.18599,0 23.99703,-9.78889 25.19319,-22.28893 h 0.7618 c -1.19956,12.92242 -12.36747,23.04854 -25.95499,23.04854 z m 0.21726,-54.114809 c -13.77039,0 -25.41753,9.33489 -28.46296,21.990679 l -0.79016,3.28348 7.01013,1.23758 c 2.28121,-9.40858 11.69117,-19.402644 22.24299,-19.402644 10.40723,0 19.02781,6.903818 21.44984,16.116374 l 0.74287,2.82775 7.01708,-1.23758 -0.86823,-3.32947 C 125.20628,84.029953 113.6818,74.946151 100.09499,74.946151 Z" />
    <path
       id="path14-93-7"
       style="color:#000000;fill:#020202;stroke:#010101;stroke-width:0.709046;stroke-opacity:1;-inkscape-stroke:none"
       d="m -35.14953,145.16842 v 0.78119 c 4.14729,1.08028 7.86715,3.1651 10.87393,5.96881 l 0.6797,-0.39242 c -3.17242,-3.01115 -7.13258,-5.2397 -11.55363,-6.35758 z m -13.0614,3.7e-4 c -4.43452,1.12145 -8.40567,3.35987 -11.58298,6.38505 l 0.67969,0.39243 c 3.01196,-2.81756 6.7426,-4.91234 10.90329,-5.99629 z m -18.3945,17.53417 c -0.63226,2.17894 -0.97757,4.47476 -0.97757,6.85039 0,2.36132 0.34134,4.64365 0.96622,6.81083 l 0.67161,-0.38802 c -0.57227,-2.04734 -0.8834,-4.19934 -0.8834,-6.42281 0,-2.23786 0.31567,-4.40309 0.8951,-6.46236 z m 49.86139,0.0381 -0.67161,0.38802 c 0.57242,2.04783 0.8834,4.20028 0.8834,6.42427 0,2.23745 -0.31524,4.40239 -0.89439,6.46126 l 0.67197,0.38767 c 0.6319,-2.1785 0.9772,-4.47377 0.9772,-6.84893 0,-2.36179 -0.34154,-4.64466 -0.96657,-6.81229 z m -7.50149,24.41827 c -3.01203,2.81764 -6.74289,4.91254 -10.904,5.99629 v 0.78156 c 4.43495,-1.12126 8.40624,-3.36011 11.58369,-6.38542 z m -34.83934,0.0275 -0.67969,0.39242 c 3.17249,3.011 7.13258,5.23965 11.55363,6.35757 v -0.78155 c -4.14722,-1.08032 -7.86708,-3.16489 -10.87394,-5.96844 z m -2.77846,-10.27262 3.6496,6.32132 -6.32136,3.64964 -3.6496,-6.32132 z m 43.03739,-24.84766 3.6496,6.32132 -6.32135,3.64964 -3.64961,-6.32132 z m -39.25612,3.7607 -3.62032,6.27058 -6.27059,-3.62034 3.62032,-6.27058 z m 42.69195,24.6482 -3.62032,6.27058 -6.27059,-3.62034 3.62032,-6.27058 z m -29.91076,10.02831 h 7.24064 v 7.24068 h -7.24064 z m 0,-49.2964 h 7.24064 v 7.24069 h -7.24064 z" />
    <path
       id="path28-91-2-9"
       style="color:#000000;fill:#010101;stroke-width:0.709046;-inkscape-stroke:none"
       d="m 26.66844,150.32848 c -9.39436,0.0323 -18.60381,2.60951 -26.65006,7.45864 l -0.41699,0.25098 0.007,0.48733 c 0.16535,10.15356 3.28905,19.84951 8.75275,28.02888 h 2.08743 C 4.85569,178.58619 1.6062,169.04163 1.34073,159.0047 c 7.67876,-4.52255 16.41009,-6.95355 25.32769,-6.98524 8.93186,0.03 17.67688,2.46724 25.36471,7.00172 -0.52533,10.13273 -4.08368,19.67324 -9.97181,27.53313 l 1.30649,0.9874 0.82306,-0.9874 c 5.74192,-8.07043 9.16534,-17.74899 9.58899,-27.98308 l 0.0206,-0.50015 -0.42905,-0.25905 c -8.05724,-4.86608 -17.28477,-7.45194 -26.69735,-7.48355 z"
       sodipodi:nodetypes="scccccccccccccsss" />
    <path
       id="path28-91-9-2-3"
       style="color:#000000;fill:#010101;stroke-width:0.701059;-inkscape-stroke:none"
       d="m 9.71104,192.48895 c 3.92655,4.75296 8.68929,8.8659 14.15433,12.09262 l 1.62669,0.96113 1.67442,-0.87781 c 5.9574,-3.12263 11.1735,-7.27615 15.47705,-12.17594 l -5.38527,-3.65704 c -5.84056,6.01637 -8.97957,7.29803 -11.56731,8.79529 -2.35992,-1.52987 -6.30952,-3.4394 -10.70028,-9.07467 z"
       sodipodi:nodetypes="cccsccccc" />
    <path
       id="path28-91-9-0"
       style="color:#000000;fill:#000000;stroke-width:0.709046;-inkscape-stroke:none"
       d="m 97.11467,140.74746 c -9.94629,0.0342 -19.69723,2.76399 -28.21614,7.89795 l -1.92364,1.15896 0.0362,2.24499 c 0.0454,2.79519 0.30879,5.55622 0.76655,8.26657 l 7.62033,-2.05932 c -0.39288,-1.98689 -0.26213,-1.94727 -0.39763,-3.99706 6.80748,-3.65576 14.3764,-5.68225 22.12713,-5.71123 7.7437,0.0281 15.30632,2.05053 22.10912,5.69877 -0.19095,2.05818 -0.17095,2.36016 -0.62042,4.34691 l 7.71634,1.72193 c 0.51413,-2.66552 0.84135,-5.38503 0.95558,-8.14455 l 0.0956,-2.30582 -1.97604,-1.19376 c -8.53053,-5.15191 -18.30083,-7.89087 -28.26633,-7.92434 h -0.0135 z m -25.12363,24.45381 c 3.57628,12.73692 11.93906,23.81616 23.61875,30.7121 l 0.40564,0.23817 0.41699,-0.21765 c 12.42667,-6.51364 21.51225,-17.6665 25.53984,-30.73262 H 120.171 c -3.9201,12.26575 -12.46545,22.73196 -24.10721,28.97971 -10.9376,-6.60311 -18.7971,-17.01226 -22.27993,-28.97971 z" />
    <path
       id="rect38-1-2-9-1"
       style="color:#000000;fill:#000000;stroke:#020202;stroke-width:0.709046;stroke-opacity:1;-inkscape-stroke:none"
       d="M 266.15311,-13.98313 V 14.056 h 0.70897 v -28.03913 z m -42.54277,1.04501 v 27.06923 h 0.70898 v -27.06923 z m 8.19877,34.45642 v 0.70901 h 26.93447 V 21.5183 Z"
       sodipodi:nodetypes="ccccccccccccccc" />
    <rect
       style="fill:#000000;fill-opacity:1;stroke:#020202;stroke-width:0.896943;stroke-opacity:1"
       id="rect13-7-7"
       width="49.728401"
       height="7.1411481"
       x="220.40826"
       y="-24.358032" />
    <rect
       style="fill:#000000;fill-opacity:1;stroke:#020202;stroke-width:0.896943;stroke-opacity:1"
       id="rect13-3-2"
       width="7.240685"
       height="7.240685"
       x="220.38593"
       y="18.310127" />
    <rect
       style="fill:#000000;fill-opacity:1;stroke:#020202;stroke-width:0.896943;stroke-opacity:1"
       id="rect13-32-2"
       width="7.240685"
       height="7.240685"
       x="262.91937"
       y="18.235168" />
  </g>
</svg>
