<?xml version="1.0" encoding="UTF-8" standalone="no"?>
<!-- Created with Inkscape (http://www.inkscape.org/) -->

<svg
   width="64"
   height="64"
   viewBox="0 0 64 64"
   version="1.1"
   id="svg1"
   xmlns="http://www.w3.org/2000/svg"
   xmlns:svg="http://www.w3.org/2000/svg">
  <defs
     id="defs1" />
  <path
     style="color:#000000;fill:#000000;stroke-width:0.969555;-inkscape-stroke:none"
     d="M 32,63.845703 0.154297,32 8.709859,23.444438 11.38939,26.123969 5.513359,32 32,58.486641 58.486641,32 52.483735,25.997094 55.163266,23.317563 56.259695,24.413992 63.845703,32 Z m 23.163266,-40.52814 -0.09279,-0.09469 -4.770134,4.770133 -14.346378,-14.346378 7.053889,-7.053889 14.346378,14.346378 -1.09643,1.09643 -1.181645,1.181644 z M 13.826532,27.993013 6.77075,20.939124 21.117129,6.592745 l 1.098323,1.09643 5.957458,5.957459 z M 37.838158,11.351516 32,5.513359 26.237589,11.277663 23.558058,8.596239 30.659287,1.493115 32,0.154297 l 1.09643,1.096429 7.421259,7.421259 z"
     id="path2" />
</svg>
