<?xml version="1.0" encoding="UTF-8" standalone="no"?>
<!-- Created with Inkscape (http://www.inkscape.org/) -->

<svg
   width="64"
   height="64"
   viewBox="0 0 64 64"
   version="1.1"
   id="svg1"
   sodipodi:docname="it-6.svg"
   inkscape:version="1.3.2 (091e20ef0f, 2023-11-25)"
   xmlns:inkscape="http://www.inkscape.org/namespaces/inkscape"
   xmlns:sodipodi="http://sodipodi.sourceforge.net/DTD/sodipodi-0.dtd"
   xmlns="http://www.w3.org/2000/svg"
   xmlns:svg="http://www.w3.org/2000/svg">
  <sodipodi:namedview
     id="namedview1"
     pagecolor="#ffffff"
     bordercolor="#000000"
     borderopacity="0.25"
     inkscape:showpageshadow="2"
     inkscape:pageopacity="0.0"
     inkscape:pagecheckerboard="0"
     inkscape:deskcolor="#d1d1d1"
     inkscape:zoom="12.640625"
     inkscape:cx="26.739184"
     inkscape:cy="30.457355"
     inkscape:window-width="1865"
     inkscape:window-height="1043"
     inkscape:window-x="0"
     inkscape:window-y="0"
     inkscape:window-maximized="1"
     inkscape:current-layer="g2" />
  <defs
     id="defs1" />
  <g
     id="g2"
     transform="translate(347.52537,-105.66611)">
    <path
       id="path40"
       style="color:#000000;fill:#020202;-inkscape-stroke:none"
       d="m -320.74607,107.79697 v 3.58203 c -5.80943,1.17469 -11.18626,4.13616 -15.27735,8.42578 l -2.75976,-1.59375 c -1.74024,3.01432 -3.48047,6.02865 -5.22071,9.04297 0.75639,0.56573 2.03735,0.92033 2.47537,1.61419 -1.97615,5.7195 -1.96953,12.03017 -0.003,17.75105 -0.89453,0.51627 -1.78906,1.03255 -2.68359,1.54882 l 5.25,9.09375 c 0.95377,-0.55078 1.90755,-1.10156 2.86132,-1.65234 4.11799,4.31061 9.50551,7.32571 15.35743,8.49805 v 3.42773 h 10.4414 v -3.42578 c 5.85882,-1.18058 11.26147,-4.19233 15.37696,-8.52148 0.88607,0.51107 1.77213,1.02213 2.6582,1.5332 1.74023,-3.01367 3.48047,-6.02735 5.2207,-9.04102 -0.73749,-0.56 -2.01721,-0.90184 -2.43432,-1.59074 1.97067,-5.72653 1.90083,-12.03859 -0.0754,-17.75301 0.90755,-0.52409 1.8151,-1.04817 2.72265,-1.57226 l -5.25,-9.09375 -2.96289,1.71093 c -4.09104,-4.27389 -9.45451,-7.2357 -15.25586,-8.40429 v -3.58008 h -10.4414 z m 0,3.69531 c -26.7793,-5.82617 -26.7793,-5.82617 0,0 z m 10.4414,3.95899 c 4.39375,0.99196 8.49398,3.21151 11.69336,6.38672 -0.75303,0.56201 -2.10764,0.96288 -2.48357,1.62589 1.72239,2.98343 3.44478,5.96685 5.16717,8.95028 l 2.85156,-1.64649 c 1.43966,4.47292 1.46345,9.37028 0.0273,13.84766 -1.01432,-0.58529 -2.02865,-1.17057 -3.04297,-1.75586 -1.73958,3.01432 -3.47917,6.02865 -5.21875,9.04297 0.94076,0.54297 1.88151,1.08593 2.82227,1.6289 -3.22385,3.23013 -7.36482,5.50154 -11.81641,6.50196 -0.11245,-0.92259 0.22385,-2.29393 -0.16566,-2.93946 h -10.27574 c -0.10881,0.89421 0.2166,2.35041 -0.1603,2.89766 -4.38468,-1.0028 -8.44968,-3.26577 -11.63463,-6.43867 0.88932,-0.51367 1.77865,-1.02735 2.66797,-1.54102 l -5.25,-9.09375 -2.88867,1.66797 c -1.42992,-4.47806 -1.40028,-9.37635 0.0488,-13.8457 1.00065,0.57812 2.0013,1.15625 3.00195,1.73437 1.73958,-3.01432 3.47917,-6.02864 5.21875,-9.04296 l -2.71875,-1.57032 c 3.20195,-3.18705 7.31106,-5.41454 11.71485,-6.4082 0.1981,0.84073 -0.411,2.48866 0.33132,2.78516 h 10.11008 v -2.78711 z m -31.10156,13.30273 c -6.11914,-23.08789 -6.11914,-23.08789 0,0 z m 43.04883,24.85352 c -49.16797,-47.94141 -49.16797,-47.94141 0,0 z"
       sodipodi:nodetypes="cccccccccccccccccccccccccccccccccccccccccccccccccccccccccc" />
  </g>
</svg>
