<?xml version="1.0" encoding="UTF-8" standalone="no"?>
<!-- Created with Inkscape (http://www.inkscape.org/) -->

<svg
   width="64"
   height="64"
   viewBox="0 0 64 64"
   version="1.1"
   id="svg1"
   xmlns="http://www.w3.org/2000/svg"
   xmlns:svg="http://www.w3.org/2000/svg">
  <defs
     id="defs1" />
  <g
     id="g2"
     transform="translate(347.52537,-105.66611)">
    <path
       id="path28-91-9-2-3"
       style="color:#000000;fill:#010101;stroke-width:0.701059;-inkscape-stroke:none"
       d="m -332.52332,154.74446 c 3.92655,4.75296 8.68929,8.8659 14.15433,12.09262 l 1.62669,0.96113 1.67442,-0.87781 c 5.9574,-3.12263 11.1735,-7.27615 15.47705,-12.17594 l -5.38527,-3.65704 c -5.84056,6.01637 -8.97957,7.29803 -11.56731,8.79529 -2.35992,-1.52987 -6.30952,-3.4394 -10.70028,-9.07467 z m 16.95301,-43.21126 c -9.58403,0.033 -18.97876,2.66232 -27.1875,7.60938 l -0.9336,0.5625 0.0156,1.0918 v 0.002 c 0.16868,10.35792 3.35578,20.24939 8.92969,28.59375 l 1.69821,2.4766 3.28226,-2.00981 -1.16016,-1.65234 c -5.35585,-7.63042 -8.47396,-16.74518 -8.85352,-26.33594 7.37997,-4.21729 15.7007,-6.51527 24.20899,-6.54687 8.51825,0.0286 16.84928,2.33104 24.23633,6.55469 -0.63276,9.67331 -4.04364,18.77737 -9.67969,26.30078 l -0.62695,0.83789 2.93945,2.2207 1.49023,-1.78711 0.0234,-0.0332 c 5.85751,-8.2329 9.34906,-18.10657 9.78125,-28.54688 v -0.002 l 0.0469,-1.12109 -0.96094,-0.58008 c -8.22,-4.96438 -17.63376,-7.60252 -27.23633,-7.63477 h -0.002 -0.01 l 0.006,1.69141 h -0.004 l -0.002,-1.69141 z" />
  </g>
</svg>
