<?xml version="1.0" encoding="UTF-8" standalone="no"?>
<!-- Created with Inkscape (http://www.inkscape.org/) -->

<svg
   width="64"
   height="64"
   viewBox="0 0 64 64"
   version="1.1"
   id="svg1"
   sodipodi:docname="it-#5.svg"
   inkscape:version="1.3.2 (091e20ef0f, 2023-11-25)"
   xmlns:inkscape="http://www.inkscape.org/namespaces/inkscape"
   xmlns:sodipodi="http://sodipodi.sourceforge.net/DTD/sodipodi-0.dtd"
   xmlns="http://www.w3.org/2000/svg"
   xmlns:svg="http://www.w3.org/2000/svg">
  <sodipodi:namedview
     id="namedview1"
     pagecolor="#ffffff"
     bordercolor="#000000"
     borderopacity="0.25"
     inkscape:showpageshadow="2"
     inkscape:pageopacity="0.0"
     inkscape:pagecheckerboard="true"
     inkscape:deskcolor="#d1d1d1"
     inkscape:zoom="5.8610017"
     inkscape:cx="4.6067211"
     inkscape:cy="63.555689"
     inkscape:window-width="1865"
     inkscape:window-height="1043"
     inkscape:window-x="0"
     inkscape:window-y="0"
     inkscape:window-maximized="1"
     inkscape:current-layer="g2"
     showguides="false">
    <sodipodi:guide
       position="11.615519,61.593181"
       orientation="0,-1"
       id="guide29"
       inkscape:locked="false" />
  </sodipodi:namedview>
  <defs
     id="defs1" />
  <g
     id="g2"
     transform="translate(347.52537,-105.66611)">
    <path
       id="path5"
       style="color:#000000;fill:#1a1a1a;-inkscape-stroke:none"
       d="m -315.56443,164.26599 c -14.2965,0 -26.11722,-10.67928 -27.38672,-24.35351 l -0.16211,-1.74805 h 3.9668 l 0.13867,1.44727 c 1.1091,11.5897 11.13264,20.70117 23.44336,20.70117 12.31072,0 22.33041,-9.11136 23.43945,-20.70117 l 0.13867,-1.44727 h 3.9668 l -0.16211,1.74805 c -1.26934,13.67414 -13.08632,24.35351 -27.38281,24.35351 z m -20.68555,-27.1914 -10.12109,-1.78711 1.18359,-4.91602 c 3.20136,-13.30394 15.43152,-23.07812 29.83789,-23.07812 14.21406,0 26.31517,9.5091 29.71094,22.54687 l 1.30078,4.98633 -10.13281,1.78711 -1.11133,-4.23438 c -2.21932,-8.44148 -10.13376,-14.82031 -19.76758,-14.82031 -4.73739,0 -9.33989,2.26415 -13.04492,5.70508 -3.70503,3.44094 -6.45672,8.04055 -7.50195,12.35156 z" />
  </g>
</svg>
