<?xml version="1.0" encoding="UTF-8" standalone="no"?>
<!-- Created with Inkscape (http://www.inkscape.org/) -->

<svg
   width="96"
   height="96"
   viewBox="0 0 96 96"
   version="1.1"
   id="svg1"
   xmlns="http://www.w3.org/2000/svg"
   xmlns:svg="http://www.w3.org/2000/svg">
  <defs
     id="defs1" />
  <path
     id="path9"
     style="color:#000000;fill:#1a1a1a;stroke:#000000;stroke-width:1.00947;-inkscape-stroke:none"
     d="m 47.932427,7.4720506 c -14.25045,0.0174 -28.43699,4.1787504 -40.49219,11.7656204 -0.0942,11.74803 2.69228,23.41137 7.82422,33.94336 l 15.04101,0.3086 c -5.26741,-10.98248 -8.60089,-14.88679 -8.33203,-28.25391 11.85932,-6.88916 40.77103,-6.98308 53.56445,-0.27734 -0.88314,14.12499 -2.5562,17.56287 -11.27343,28.71289 l 15.05273,0.5332 c 3.65971,-6.71207 6.20472,-14.05845 7.75977,-21.50977 0.89595,-4.40994 1.33943,-8.89958 1.47656,-13.39453 -12.08551,-7.62923 -26.32011,-11.8159704 -40.61914,-11.8281204 0.0101,1.48544 0.003,3.4959704 0,0.80859 -0.003,-0.2686 0.004,-0.54399 -0.002,-0.80859 z m -16.8086,45.7226504 c -2.53407,1.88937 -7.94834,11.72782 -10.48242,13.61719 6.05188,8.612789 16.57171,18.594279 25.60352,21.675779 9.33339,-4.61397 20.72864,-13.80943 27.57617,-21.675779 l -10.63477,-13.21484 z" />
</svg>
