<?xml version="1.0" encoding="UTF-8" standalone="no"?>
<!-- Created with Inkscape (http://www.inkscape.org/) -->

<svg
   width="96"
   height="96"
   viewBox="0 0 96 96"
   version="1.1"
   id="svg1"
   xmlns="http://www.w3.org/2000/svg"
   xmlns:svg="http://www.w3.org/2000/svg">
  <defs
     id="defs1" />
  <path
     id="path9-5"
     style="color:#000000;fill:#1a1a1a;stroke:#000000;stroke-width:1.00947;-inkscape-stroke:none"
     d="m 47.933599,7.6215887 c -14.24585,0.0165 -28.44169,4.1801303 -40.4921897,11.7656203 -0.0709,8.55415 1.39527,17.09469 4.1872997,25.17608 l 72.10801,0.009 c 2.97537,-8.0324 4.6235,-16.55858 4.81797,-25.12241 -12.08063,-7.62779 -26.3248,-11.8169403 -40.61914,-11.8281203 v 0.80859 l -0.002,-0.80859 z m -18.8086,39.7226503 c -4.14832,3.99727 -6.33409,9.61992 -10.48242,13.61719 6.51204,8.71332 17.1874,21.89317 26.97956,26.63399 3.12246,2.328 6.01122,-1.13169 8.73056,-2.58196 7.30047,-5.0642 17.62912,-17.39079 23.46957,-24.05203 -3.54492,-4.40495 -7.08985,-8.80989 -10.63477,-13.21484 -2.98892,7.10325 -13.70751,17.46167 -19.67305,21.86168 -7.79343,-2.59742 -14.31242,-15.63818 -18.38945,-22.26403 z" />
</svg>
