<?xml version="1.0" encoding="UTF-8" standalone="no"?>
<!-- Created with Inkscape (http://www.inkscape.org/) -->

<svg
   width="64"
   height="64"
   viewBox="0 0 64 64"
   version="1.1"
   id="svg1"
   xmlns="http://www.w3.org/2000/svg"
   xmlns:svg="http://www.w3.org/2000/svg">
  <defs
     id="defs1" />
  <path
     style="color:#000000;fill:#ffffff;stroke-width:0.969555;-inkscape-stroke:none;fill-opacity:1"
     d="M 32,0.154297 0.154297,32 8.709859,40.555562 11.38939,37.876031 5.513359,32 32,5.5133587 58.486641,32 52.483735,38.002906 55.163266,40.682437 56.259695,39.586008 63.845703,32 Z m 23.163266,40.52814 -0.09279,0.09469 -4.770134,-4.770133 -14.346378,14.346378 7.053889,7.053889 14.346378,-14.346378 -1.09643,-1.09643 -1.181645,-1.181644 z m -41.336734,-4.67545 -7.055782,7.053889 14.346379,14.346379 1.098323,-1.09643 5.957458,-5.957459 z M 37.838158,52.648484 32,58.486641 26.237589,52.722337 23.558058,55.403761 30.659287,62.506885 32,63.845703 l 1.09643,-1.096429 7.421259,-7.421259 z"
     id="path2" />
</svg>
