<?xml version="1.0" encoding="UTF-8" standalone="no"?>
<!-- Created with Inkscape (http://www.inkscape.org/) -->

<svg
   width="64"
   height="64"
   viewBox="0 0 64 64"
   version="1.1"
   id="svg1"
   xmlns="http://www.w3.org/2000/svg"
   xmlns:svg="http://www.w3.org/2000/svg">
  <defs
     id="defs1" />
  <g
     id="g2"
     transform="translate(347.52537,-105.66611)"
     style="fill:#fbfbfb;fill-opacity:1">
    <g
       id="g22"
       transform="matrix(0.70904607,0,0,0.70904607,607.74351,153.07487)"
       style="fill:#fbfbfb;fill-opacity:1">
      <g
         id="rect38-1-2-9"
         style="fill:#fbfbfb;fill-opacity:1">
        <path
           id="path5"
           style="color:#000000;fill:#fbfbfb;-inkscape-stroke:none;fill-opacity:1"
           d="m -1279.542,-59.257337 c 0,4.907892 0.072,9.815599 0.1185,14.723236 h 14.6048 v -14.723236 z m -59.9121,0.148747 v 14.725991 h 14.726 V -59.10859 Z m 16.106,4.70207 v 5.511917 h 41.5914 l 0.9173,-1.200997 v -4.31092 z m 48.4063,11.384685 v 2.256002 40.34635124 h 5.5119 V -43.021835 Z m -60.0003,0.01928 v 2.256002 40.43449784 h 5.5119 V -43.002553 Z m 11.5637,48.596322 v 2.256002 3.255915 h 42.4977 V 5.593769 Z m 43.8805,-4.63045106 V 15.686554 h 14.726 V 0.96331794 Z M -1339.4844,1.06799 v 14.725993 h 14.726 V 1.067992 Z" />
      </g>
    </g>
  </g>
</svg>
