<?xml version="1.0" encoding="UTF-8" standalone="no"?>
<!-- Created with Inkscape (http://www.inkscape.org/) -->

<svg
   width="64"
   height="64"
   viewBox="0 0 64 64"
   version="1.1"
   id="svg1"
   xmlns="http://www.w3.org/2000/svg"
   xmlns:svg="http://www.w3.org/2000/svg">
  <defs
     id="defs1" />
  <g
     id="g2"
     transform="translate(347.52537,-105.66611)">
    <path
       id="path5"
       style="color:#000000;fill:#f4f4f4;-inkscape-stroke:none;fill-opacity:1"
       d="M -315.56443 110.6583 C -329.86093 110.6583 -341.68165 121.33758 -342.95115 135.01181 L -343.11326 136.75986 L -339.14646 136.75986 L -339.00779 135.31259 C -337.89869 123.72289 -327.87515 114.61142 -315.56443 114.61142 C -303.25371 114.61142 -293.23402 123.72278 -292.12498 135.31259 L -291.98631 136.75986 L -288.01951 136.75986 L -288.18162 135.01181 C -289.45096 121.33767 -301.26794 110.6583 -315.56443 110.6583 z M -336.24998 137.8497 L -346.37107 139.63681 L -345.18748 144.55283 C -341.98612 157.85677 -329.75596 167.63095 -315.34959 167.63095 C -301.13553 167.63095 -289.03442 158.12185 -285.63865 145.08408 L -284.33787 140.09775 L -294.47068 138.31064 L -295.58201 142.54502 C -297.80133 150.9865 -305.71577 157.36533 -315.34959 157.36533 C -320.08698 157.36533 -324.68948 155.10118 -328.39451 151.66025 C -332.09954 148.21931 -334.85123 143.6197 -335.89646 139.30869 L -336.24998 137.8497 z " />
  </g>
</svg>
