<?xml version="1.0" encoding="UTF-8" standalone="no"?>
<!-- Created with Inkscape (http://www.inkscape.org/) -->

<svg
   width="64"
   height="64"
   viewBox="0 0 64 64"
   version="1.1"
   id="svg1"
   xmlns="http://www.w3.org/2000/svg"
   xmlns:svg="http://www.w3.org/2000/svg">
  <defs
     id="defs1" />
  <path
     style="color:#000000;fill:#ffffff;-inkscape-stroke:none;fill-opacity:1"
     d="m 9.324171,9.2714843 c 0,4.1113287 0,8.2226567 0,12.3339847 1.297526,0 2.595052,0 3.892578,0 0,-2.813802 0,-5.627604 0,-8.441406 12.55599,0 25.111979,0 37.667969,0 0,2.813802 0,5.627604 0,8.441406 1.298177,0 2.596354,0 3.894531,0 0,-4.111328 0,-8.222656 0,-12.3339847 -15.151693,0 -30.303385,0 -45.455078,0 z m 38.44336,12.4687497 c 0,6.839844 0,13.679688 0,20.519532 3.375651,0 6.751302,0 10.126953,0 0,-6.839844 0,-13.679688 0,-20.519532 -3.375651,0 -6.751302,0 -10.126953,0 z m -31.457806,0.126534 c -3.401403,-0.02074 -6.8028059,-0.04148 -10.2042087,-0.06223 0.02601,6.818408 0.05202,13.636816 0.07803,20.455224 3.3756509,0 6.7513017,0 10.1269527,0 -2.58e-4,-6.797662 -5.16e-4,-13.595328 -7.74e-4,-20.392994 z M 9.324171,42.394531 c 0,4.111328 0,8.222657 0,12.333985 15.151693,0 30.303385,0 45.455078,0 0,-4.111328 0,-8.222657 0,-12.333985 -1.298177,0 -2.596354,0 -3.894531,0 0,2.813802 0,5.627604 0,8.441406 -12.55599,0 -25.111979,0 -37.667969,0 0,-2.813802 0,-5.627604 0,-8.441406 -1.297526,0 -2.595052,0 -3.892578,0 z"
     id="path21" />
</svg>
