<?xml version="1.0" encoding="UTF-8" standalone="no"?>
<!-- Created with Inkscape (http://www.inkscape.org/) -->

<svg
   width="64"
   height="64"
   viewBox="0 0 64 64"
   version="1.1"
   id="svg1"
   xmlns="http://www.w3.org/2000/svg"
   xmlns:svg="http://www.w3.org/2000/svg">
  <defs
     id="defs1" />
  <path
     style="color:#000000;fill:#000000;-inkscape-stroke:none"
     d="m 9.2851563,9.2714844 c 0,4.1113286 0,8.2226566 0,12.3339846 1.2975257,0 2.5950517,0 3.8925777,0 0,-2.813802 0,-5.627604 0,-8.441406 12.55599,0 25.111979,0 37.667969,0 0,2.813802 0,5.627604 0,8.441406 1.298177,0 2.596354,0 3.894531,0 0,-4.111328 0,-8.222656 0,-12.3339846 -15.151693,0 -30.303385,0 -45.4550777,0 z M 47.728516,21.740234 c 0,6.839844 0,13.679688 0,20.519532 3.375651,0 6.751302,0 10.126953,0 0,-6.839844 0,-13.679688 0,-20.519532 -3.375651,0 -6.751302,0 -10.126953,0 z M 16.27071,21.866768 c -3.401403,-0.02074 -6.8028056,-0.04148 -10.2042084,-0.06223 0.02601,6.818408 0.05202,13.636816 0.07803,20.455224 3.3756509,0 6.7513018,0 10.1269528,0 C 16.271226,35.4621 16.270968,28.664434 16.27071,21.866768 Z M 9.2851563,42.394531 c 0,4.111328 0,8.222657 0,12.333985 15.1516927,0 30.3033847,0 45.4550777,0 0,-4.111328 0,-8.222657 0,-12.333985 -1.298177,0 -2.596354,0 -3.894531,0 0,2.813802 0,5.627604 0,8.441406 -12.55599,0 -25.111979,0 -37.667969,0 0,-2.813802 0,-5.627604 0,-8.441406 -1.297526,0 -2.595052,0 -3.8925777,0 z"
     id="path21" />
</svg>
