<?xml version="1.0" encoding="UTF-8" standalone="no"?>
<!-- Created with Inkscape (http://www.inkscape.org/) -->

<svg
   width="64"
   height="64"
   viewBox="0 0 64 64"
   version="1.1"
   id="svg1"
   sodipodi:docname="it-7.svg"
   inkscape:version="1.3.2 (091e20ef0f, 2023-11-25)"
   xml:space="preserve"
   xmlns:inkscape="http://www.inkscape.org/namespaces/inkscape"
   xmlns:sodipodi="http://sodipodi.sourceforge.net/DTD/sodipodi-0.dtd"
   xmlns="http://www.w3.org/2000/svg"
   xmlns:svg="http://www.w3.org/2000/svg"><sodipodi:namedview
     id="namedview1"
     pagecolor="#ffffff"
     bordercolor="#000000"
     borderopacity="0.25"
     inkscape:showpageshadow="2"
     inkscape:pageopacity="0.0"
     inkscape:pagecheckerboard="true"
     inkscape:deskcolor="#d1d1d1"
     inkscape:zoom="5.8610017"
     inkscape:cx="4.6067211"
     inkscape:cy="63.555689"
     inkscape:window-width="1865"
     inkscape:window-height="1043"
     inkscape:window-x="0"
     inkscape:window-y="0"
     inkscape:window-maximized="1"
     inkscape:current-layer="g2"
     showguides="false"><sodipodi:guide
       position="11.615519,61.593181"
       orientation="0,-1"
       id="guide29"
       inkscape:locked="false" /></sodipodi:namedview><defs
     id="defs1" /><g
     id="g2"
     transform="translate(347.52537,-105.66611)"><path
       id="path6"
       style="color:#000000;fill:#000000;-inkscape-stroke:none"
       d="M -315.60154 107.53916 C -325.73359 107.57396 -335.66579 110.35428 -344.34373 115.58408 L -346.77537 117.04892 L -346.7285 119.88486 C -346.6822 122.73361 -346.4133 125.5472 -345.94725 128.30674 L -345.75975 129.42197 L -336.11912 126.81845 L -336.30662 125.87509 C -336.62253 124.27749 -336.5651 123.86886 -336.61717 122.70322 C -333.38356 121.02364 -329.99469 119.70088 -326.49021 118.80869 L -342.0781 131.99228 L -326.48045 118.80674 C -322.93334 117.90452 -319.28188 117.4091 -315.58787 117.39463 C -308.25655 117.42123 -301.09838 119.31092 -294.59959 122.67588 C -294.71267 123.96146 -294.72868 124.55476 -295.09764 126.18564 L -295.32615 127.1915 L -285.57029 129.36924 L -285.37107 128.33017 C -284.84768 125.61663 -284.5129 122.84598 -284.39646 120.0333 L -284.27537 117.11924 L -286.77342 115.61142 C -295.46325 110.3633 -305.41481 107.57326 -315.56639 107.53916 L -315.56834 107.53916 L -315.58396 107.53916 L -315.59959 107.53916 L -315.60154 107.53916 z M -342.0781 131.99228 L -341.71092 133.29892 C -338.06383 146.288 -329.53476 157.58549 -317.62498 164.61728 L -317.62303 164.61728 L -316.72654 165.14463 L -315.80271 164.66416 C -303.1312 158.02217 -293.86507 146.64698 -289.75779 133.32236 L -289.34764 131.99228 L -293.291 131.99228 L -293.51951 132.70713 C -297.29714 144.52708 -305.49612 154.59558 -316.61912 160.74814 C -327.05342 154.26562 -334.58725 144.25775 -337.94139 132.73252 L -338.15623 131.99228 L -342.0781 131.99228 z " /></g></svg>
