<?xml version="1.0" encoding="UTF-8" standalone="no"?>
<!-- Created with Inkscape (http://www.inkscape.org/) -->

<svg
   width="512"
   height="512"
   viewBox="0 0 135.46667 135.46666"
   version="1.1"
   id="svg1"
   xmlns="http://www.w3.org/2000/svg"
   xmlns:svg="http://www.w3.org/2000/svg">
  <defs
     id="defs1" />
  <g
     id="layer1"
     transform="translate(111.12501,-12.435424)">
    <path
       d="m -93.570809,89.211168 c 2.05458,0 3.928537,-0.632179 5.531561,-1.964269 0.270933,-0.225778 0.361245,-0.519289 0.361245,-0.835379 v -5.396094 c 0,-0.677334 -0.474134,-1.174046 -1.151468,-1.174046 h -4.222049 c -0.677334,0 -1.174046,0.428979 -1.174046,1.038579 0,0.609601 0.496712,1.038579 1.174046,1.038579 h 3.115737 v 4.018849 c -1.106313,0.722489 -2.302936,1.12889 -3.635026,1.12889 -3.567293,0 -6.457251,-3.048003 -6.457251,-6.908807 0,-3.815649 2.889958,-6.908807 6.457251,-6.908807 1.964268,0 2.957692,0.519289 4.086582,1.490134 0.767645,0.654757 1.873957,0.135467 1.873957,-0.745067 0,-0.383823 -0.09031,-0.632178 -0.451556,-0.92569 -1.693335,-1.377246 -3.206048,-1.941691 -5.508983,-1.941691 -4.921961,0 -8.715031,3.996271 -8.715031,9.031121 0,5.102583 3.815648,9.053698 8.715031,9.053698 z m 14.607847,-0.112889 c 1.53529,0 2.889958,-0.564445 3.838226,-1.512713 v 0.248356 c 0,0.677334 0.474134,1.151468 1.151468,1.151468 0.677334,0 1.151467,-0.474134 1.151467,-1.151468 V 77.764223 c 0,-0.677334 -0.474133,-1.151468 -1.151467,-1.151468 -0.677334,0 -1.151468,0.474134 -1.151468,1.151468 v 6.36694 c 0,1.648179 -1.467557,2.889958 -3.38667,2.889958 -2.05458,0 -3.589871,-1.151468 -3.589871,-3.702759 v -5.554139 c 0,-0.654756 -0.496711,-1.151468 -1.151467,-1.151468 -0.654757,0 -1.151468,0.496712 -1.151468,1.151468 v 5.554139 c 0,3.747915 2.348091,5.779917 5.44125,5.779917 z M -67.38057,74.625908 c 0.812801,0 1.490135,-0.677334 1.490135,-1.490134 0,-0.812801 -0.677334,-1.490135 -1.490135,-1.490135 -0.812801,0 -1.490135,0.677334 -1.490135,1.490135 0,0.8128 0.677334,1.490134 1.490135,1.490134 z m 0,14.359482 c 0.677334,0 1.151468,-0.474134 1.151468,-1.151468 V 77.786801 c 0,-0.677334 -0.474134,-1.151468 -1.151468,-1.151468 -0.677334,0 -1.151468,0.474134 -1.151468,1.151468 v 10.047121 c 0,0.677334 0.474134,1.151468 1.151468,1.151468 z m 9.934233,0 h 0.406401 c 0.767645,0 1.33209,-0.474134 1.33209,-1.12889 0,-0.654757 -0.428978,-1.12889 -0.970845,-1.12889 h -0.767646 c -0.970845,0 -1.715913,-0.903112 -1.715913,-2.122314 V 79.02858 h 1.919114 c 0.632178,0 1.061156,-0.406401 1.061156,-0.948268 0,-0.587023 -0.428978,-0.993423 -1.061156,-0.993423 h -1.919114 v -3.251204 c 0,-0.654756 -0.474133,-1.12889 -1.12889,-1.12889 -0.654756,0 -1.12889,0.474134 -1.12889,1.12889 v 3.251204 h -1.038578 c -0.632179,0 -1.061157,0.4064 -1.061157,0.993423 0,0.541867 0.428978,0.948268 1.061157,0.948268 h 1.038578 v 5.576716 c 0,2.506136 1.715913,4.380094 3.973693,4.380094 z m 9.708437,0.09031 c 1.783646,0 3.318937,-0.790223 4.357515,-2.05458 V 87.8565 c 0,0.654756 0.496712,1.151468 1.151468,1.151468 0.654757,0 1.151468,-0.496712 1.151468,-1.151468 v -5.03485 c -0.02258,-3.567292 -2.686758,-6.276629 -6.208895,-6.276629 -3.544715,0 -6.231473,2.709337 -6.231473,6.276629 0,3.567293 2.483558,6.254051 5.779917,6.254051 z m 0.451556,-2.032002 c -2.280358,0 -4.018849,-1.806224 -4.018849,-4.222049 0,-2.415825 1.738491,-4.244626 4.018849,-4.244626 2.280358,0 3.996271,1.828801 3.996271,4.244626 0,2.415825 -1.715913,4.222049 -3.996271,4.222049 z m 10.769593,1.941691 c 0.745068,0 1.12889,-0.406401 1.12889,-1.12889 v -6.592718 c 0,-2.077158 2.190047,-3.160892 5.080005,-2.596447 0.587023,0.135467 1.083735,-0.04516 1.24178,-0.677334 0.2032,-0.812801 -0.72249,-1.490135 -2.528714,-1.490135 -1.512713,0 -2.889959,0.654756 -3.793071,1.693335 v -0.428978 c 0,-0.745068 -0.383822,-1.12889 -1.12889,-1.12889 -0.722489,0 -1.12889,0.4064 -1.12889,1.12889 V 87.8565 c 0,0.745067 0.406401,1.12889 1.12889,1.12889 z m 11.221165,0 h 9.347209 c 0.654757,0 1.174046,-0.51929 1.174046,-1.174046 0,-0.654756 -0.519289,-1.174046 -1.174046,-1.174046 H -24.12154 V 72.526173 c 0,-0.654756 -0.51929,-1.174046 -1.174046,-1.174046 -0.632178,0 -1.151468,0.51929 -1.151468,1.174046 v 15.285171 c 0,0.677334 0.496712,1.174046 1.151468,1.174046 z m 18.2654496,0.09031 c 1.7836463,0 3.3189367,-0.790223 4.3575156,-2.05458 V 87.8565 c 0,0.654756 0.4967116,1.151468 1.1514678,1.151468 0.65475623,0 1.15146785,-0.496712 1.15146785,-1.151468 v -5.03485 c -0.0225778,-3.567292 -2.68675825,-6.276629 -6.20889525,-6.276629 -3.5447146,0 -6.2314726,2.709337 -6.2314726,6.276629 0,3.567293 2.483558,6.254051 5.7799166,6.254051 z m 0.451556,-2.032002 c -2.2803578,0 -4.0188486,-1.806224 -4.0188486,-4.222049 0,-2.415825 1.7384908,-4.244626 4.0188486,-4.244626 2.2803579,0 3.9962708,1.828801 3.9962708,4.244626 0,2.415825 -1.7159129,4.222049 -3.9962708,4.222049 z m 15.8495985,2.032002 c 3.5447149,0 6.2314729,-2.709336 6.2314729,-6.276629 0,-3.567292 -2.483558,-6.254051 -5.7799169,-6.254051 -1.7836462,0 -3.3189367,0.790224 -4.3575155,2.05458 v -6.096006 c 0,-0.677334 -0.4741338,-1.151468 -1.1514678,-1.151468 -0.6773341,0 -1.1514679,0.474134 -1.1514679,1.151468 v 10.295477 c 0.022578,3.567293 2.6867583,6.276629 6.2088952,6.276629 z m 0,-2.032002 c -2.2803579,0 -3.9962707,-1.828802 -3.9962707,-4.244627 0,-2.415824 1.7159128,-4.222048 3.9962707,-4.222048 2.2803579,0 4.0188489,1.806224 4.0188489,4.222048 0,2.415825 -1.738491,4.244627 -4.0188489,4.244627 z"
       id="text1"
       style="font-weight:bold;font-size:22.5778px;font-family:Comfortaa;-inkscape-font-specification:'Comfortaa Bold';fill:#1a1a1a;stroke-width:0.543983"
       aria-label="GuitarLab" />
  </g>
</svg>
